<svg width="25" height="25" viewBox="0 0 25 25" fill="none" xmlns="http://www.w3.org/2000/svg">
<mask id="mask0_11_24" style="mask-type:alpha" maskUnits="userSpaceOnUse" x="0" y="0" width="25" height="25">
<rect x="0.824219" y="0.425049" width="24" height="24" fill="#D9D9D9"/>
</mask>
<g mask="url(#mask0_11_24)">
<path d="M9.82422 20.425C9.27422 20.425 8.80355 20.2294 8.41222 19.838C8.02022 19.446 7.82422 18.975 7.82422 18.425C7.82422 17.875 8.02022 17.404 8.41222 17.012C8.80355 16.6207 9.27422 16.425 9.82422 16.425C10.3742 16.425 10.8452 16.6207 11.2372 17.012C11.6286 17.404 11.8242 17.875 11.8242 18.425C11.8242 18.975 11.6286 19.446 11.2372 19.838C10.8452 20.2294 10.3742 20.425 9.82422 20.425ZM15.8242 20.425C15.2742 20.425 14.8036 20.2294 14.4122 19.838C14.0202 19.446 13.8242 18.975 13.8242 18.425C13.8242 17.875 14.0202 17.404 14.4122 17.012C14.8036 16.6207 15.2742 16.425 15.8242 16.425C16.3742 16.425 16.8452 16.6207 17.2372 17.012C17.6286 17.404 17.8242 17.875 17.8242 18.425C17.8242 18.975 17.6286 19.446 17.2372 19.838C16.8452 20.2294 16.3742 20.425 15.8242 20.425ZM9.82422 14.425C9.27422 14.425 8.80355 14.229 8.41222 13.837C8.02022 13.4457 7.82422 12.975 7.82422 12.425C7.82422 11.875 8.02022 11.404 8.41222 11.012C8.80355 10.6207 9.27422 10.425 9.82422 10.425C10.3742 10.425 10.8452 10.6207 11.2372 11.012C11.6286 11.404 11.8242 11.875 11.8242 12.425C11.8242 12.975 11.6286 13.4457 11.2372 13.837C10.8452 14.229 10.3742 14.425 9.82422 14.425ZM15.8242 14.425C15.2742 14.425 14.8036 14.229 14.4122 13.837C14.0202 13.4457 13.8242 12.975 13.8242 12.425C13.8242 11.875 14.0202 11.404 14.4122 11.012C14.8036 10.6207 15.2742 10.425 15.8242 10.425C16.3742 10.425 16.8452 10.6207 17.2372 11.012C17.6286 11.404 17.8242 11.875 17.8242 12.425C17.8242 12.975 17.6286 13.4457 17.2372 13.837C16.8452 14.229 16.3742 14.425 15.8242 14.425ZM9.82422 8.42505C9.27422 8.42505 8.80355 8.22905 8.41222 7.83705C8.02022 7.44572 7.82422 6.97505 7.82422 6.42505C7.82422 5.87505 8.02022 5.40438 8.41222 5.01305C8.80355 4.62105 9.27422 4.42505 9.82422 4.42505C10.3742 4.42505 10.8452 4.62105 11.2372 5.01305C11.6286 5.40438 11.8242 5.87505 11.8242 6.42505C11.8242 6.97505 11.6286 7.44572 11.2372 7.83705C10.8452 8.22905 10.3742 8.42505 9.82422 8.42505ZM15.8242 8.42505C15.2742 8.42505 14.8036 8.22905 14.4122 7.83705C14.0202 7.44572 13.8242 6.97505 13.8242 6.42505C13.8242 5.87505 14.0202 5.40438 14.4122 5.01305C14.8036 4.62105 15.2742 4.42505 15.8242 4.42505C16.3742 4.42505 16.8452 4.62105 17.2372 5.01305C17.6286 5.40438 17.8242 5.87505 17.8242 6.42505C17.8242 6.97505 17.6286 7.44572 17.2372 7.83705C16.8452 8.22905 16.3742 8.42505 15.8242 8.42505Z" fill="white"/>
</g>
</svg>
